<svg xmlns="http://www.w3.org/2000/svg" xmlns:xlink="http://www.w3.org/1999/xlink" width="1793" zoomAndPan="magnify" viewBox="0 0 595.5 842.249979" height="1793" preserveAspectRatio="xMidYMid meet" version="1.0"><defs><clipPath id="0ecd600333"><path d="M 174.570312 278.957031 L 317.695312 278.957031 L 317.695312 411 L 174.570312 411 Z M 174.570312 278.957031 " clip-rule="nonzero"/></clipPath><clipPath id="40a8d8d46c"><path d="M 198 326 L 271 326 L 271 438.566406 L 198 438.566406 Z M 198 326 " clip-rule="nonzero"/></clipPath><clipPath id="33f04aa5c5"><path d="M 275.578125 329.285156 L 413.40625 329.285156 L 413.40625 438.6875 L 275.578125 438.6875 Z M 275.578125 329.285156 " clip-rule="nonzero"/></clipPath></defs><g clip-path="url(#0ecd600333)"><path fill="#0cc0df" d="M 268.710938 397.453125 C 296.570312 392.441406 317.882812 367.925781 317.882812 338.679688 C 317.882812 305.839844 291.011719 278.96875 258.167969 278.96875 L 174.570312 278.96875 L 198.457031 302.851562 L 258.167969 302.851562 C 277.875 302.851562 293.996094 318.976562 293.996094 338.679688 C 293.996094 358.386719 277.875 374.507812 258.167969 374.507812 L 246.226562 374.507812 L 246.226562 410.972656 L 270.113281 397.183594 C 269.648438 397.28125 269.179688 397.371094 268.710938 397.453125 Z M 268.710938 397.453125 " fill-opacity="1" fill-rule="evenodd"/></g><g clip-path="url(#40a8d8d46c)"><path fill="#a60ed1" d="M 222.34375 398.390625 C 222.34375 382.46875 222.34375 366.546875 222.34375 350.621094 L 258.167969 350.621094 C 264.738281 350.621094 270.113281 345.25 270.113281 338.679688 C 270.113281 332.109375 264.738281 326.738281 258.167969 326.738281 L 198.457031 326.738281 C 198.457031 350.621094 198.457031 374.507812 198.457031 398.390625 L 198.457031 438.554688 L 222.34375 424.765625 Z M 222.34375 398.390625 " fill-opacity="1" fill-rule="evenodd"/></g><g clip-path="url(#33f04aa5c5)"><path fill="#a60ed1" d="M 308.617188 394.484375 L 370.480469 394.484375 C 373.167969 394.484375 375.347656 395.316406 377.015625 396.984375 C 378.683594 398.652344 379.515625 400.832031 379.515625 403.519531 C 379.515625 406.855469 378.683594 409.289062 377.015625 410.816406 C 375.347656 412.347656 373.167969 413.109375 370.480469 413.109375 L 308.617188 413.109375 Z M 275.535156 438.550781 L 371.871094 438.550781 C 378.726562 438.550781 384.496094 438.226562 389.179688 437.574219 C 393.859375 436.929688 398.027344 435.585938 401.6875 433.546875 C 405.351562 431.507812 408.175781 428.425781 410.167969 424.300781 C 412.160156 420.175781 413.160156 414.683594 413.160156 407.828125 C 413.160156 402.359375 412.324219 397.910156 410.65625 394.484375 C 408.988281 391.054688 406.949219 388.527344 404.539062 386.90625 C 402.128906 385.285156 399.765625 384.21875 397.449219 383.707031 C 395.132812 383.199219 393 382.945312 391.054688 382.945312 L 391.054688 382.527344 C 392.074219 382.527344 393.511719 382.273438 395.363281 381.765625 C 397.21875 381.253906 399.210938 380.140625 401.339844 378.429688 C 403.472656 376.710938 405.324219 374.117188 406.902344 370.640625 C 408.476562 367.164062 409.265625 362.648438 409.265625 357.085938 C 409.265625 350.785156 408.128906 345.710938 405.859375 341.867188 C 403.589844 338.019531 400.648438 335.191406 397.03125 333.386719 C 393.417969 331.578125 389.617188 330.441406 385.632812 329.980469 C 381.648438 329.515625 377.058594 329.285156 371.871094 329.285156 L 275.535156 329.285156 C 275.535156 343.042969 292.835938 352.433594 307.882812 346.996094 C 305.542969 343.671875 304.980469 339.449219 309.21875 337.285156 C 315.945312 333.847656 317.535156 342.566406 321.246094 341.855469 C 327.410156 340.667969 336.898438 341.742188 341.707031 343.015625 C 346.519531 344.289062 346.234375 346.441406 346.261719 347.007812 C 346.292969 347.570312 351.867188 349.242188 353.480469 350.035156 C 355.09375 350.828125 359.902344 352.128906 360.894531 352.835938 C 361.882812 353.542969 362.507812 354.082031 362.933594 355.074219 C 363.355469 356.0625 361.855469 357.761719 361.855469 358.554688 C 361.855469 359.347656 360.921875 360.675781 360.894531 361.328125 C 360.867188 361.976562 359.082031 362.628906 359.082031 362.628906 C 359.082031 362.628906 357.929688 365.34375 357.335938 366.449219 C 356.742188 367.550781 354.671875 367.695312 352.636719 367.835938 C 350.597656 367.976562 344.851562 368.285156 342.476562 368.457031 C 340.097656 368.628906 337.355469 374.144531 337.355469 374.144531 C 337.296875 373.210938 337.355469 371.429688 337.355469 371.429688 C 336.023438 372.703125 334.097656 377.0625 334.097656 377.0625 C 334.042969 376.523438 334.550781 373.070312 334.550781 373.070312 C 326.480469 385.871094 275.535156 378.539062 275.535156 438.550781 Z M 275.535156 438.550781 " fill-opacity="1" fill-rule="nonzero"/></g></svg>